<?xml version="1.0" standalone="no"?>
<!DOCTYPE svg PUBLIC "-//W3C//DTD SVG 20010904//EN"
 "http://www.w3.org/TR/2001/REC-SVG-20010904/DTD/svg10.dtd">
<svg version="1.0" xmlns="http://www.w3.org/2000/svg"
 width="60" height="45" viewBox="0 0 700 600"
 preserveAspectRatio="xMidYMid meet">

<g transform="translate(0.000000,600.000000) scale(0.100000,-0.100000)"
fill="#2d862dff" stroke="none">
<path d="M3440 5828 c-29 -19 -331 -521 -1662 -2763 -1525 -2565 -1628 -2742
-1628 -2785 0 -54 27 -102 72 -130 33 -20 58 -20 3298 -20 3240 0 3265 0 3298
20 51 31 74 76 69 136 -3 47 -122 250 -1628 2784 -1020 1717 -1634 2741 -1651
2753 -16 12 -49 22 -80 25 -44 3 -59 0 -88 -20z m255 -723 c92 -153 164 -286
162 -295 -3 -8 -576 -996 -1274 -2195 l-1270 -2180 -373 -3 -372 -2 22 37
c393 671 2926 4923 2932 4921 4 -2 82 -129 173 -283z m1542 -2595 c649 -1092
1192 -2006 1207 -2032 l28 -48 -540 0 -540 0 -932 1577 c-513 868 -935 1585
-937 1593 -4 13 103 201 464 819 30 51 59 89 63 85 5 -5 539 -902 1187 -1994z
m-1048 -647 c463 -783 841 -1425 841 -1428 0 -3 -756 -5 -1681 -5 -1018 0
-1679 4 -1677 9 13 38 1664 2858 1670 2853 3 -4 385 -647 847 -1429z"/>
</g>
</svg>
